<svg width="1440" height="1024" viewBox="0 0 1440 1024" fill="none" xmlns="http://www.w3.org/2000/svg">
<rect width="1440" height="1024" fill="white"/>
<g clip-path="url(#clip0_1_2)">
<path d="M1055.2 432.129H365.109C355.859 432.129 348.334 424.604 348.334 415.353V179.775C348.334 170.525 355.859 163 365.109 163H1055.2C1064.45 163 1071.98 170.525 1071.98 179.775V415.353C1071.98 424.604 1064.45 432.129 1055.2 432.129ZM365.109 165C356.962 165 350.334 171.628 350.334 179.775V415.353C350.334 423.5 356.962 430.129 365.109 430.129H1055.2C1063.35 430.129 1069.98 423.5 1069.98 415.353V179.775C1069.98 171.628 1063.35 165 1055.2 165H365.109Z" fill="#3F3D56"/>
<path d="M1121.03 713.557H270V715.24H1121.03V713.557Z" fill="#E6E6E6"/>
<path d="M1121.03 627.557H270V629.24H1121.03V627.557Z" fill="#E6E6E6"/>
<path d="M1082.66 514.008L1034.34 499.216C1033.27 498.889 1032.15 498.769 1031.03 498.864L786.13 519.707C782.638 520.004 781.76 524.714 784.911 526.248L792.755 530.07H792.546V713.022H799.938V533.57L824.524 545.547C826.405 546.464 828.504 546.838 830.586 546.627L833.202 546.363V713.022H840.594V545.617L1030.01 526.483V713.022H1037.41V525.737L1068.82 522.563V713.022H1076.21V521.817L1081.95 521.238C1085.97 520.831 1086.52 515.192 1082.66 514.008Z" fill="#3F3D56"/>
<path d="M857.226 518.982C861.846 518.982 930.222 510.666 930.222 510.666L940.386 524.526L869.238 538.386L857.226 518.982Z" fill="white"/>
<path d="M932.269 705.917L920.39 705.895L914.818 660.064L932.35 660.096L932.269 705.917Z" fill="#A0616A"/>
<path d="M891.57 705.577C891.199 706.2 891 708.21 890.999 708.934C890.995 711.161 892.797 712.969 895.024 712.973L931.813 713.036C933.332 713.039 934.566 711.81 934.568 710.29L934.571 708.759C934.571 708.759 936.399 704.159 932.661 698.478C932.661 698.478 927.997 702.913 921.05 695.942L919.005 692.221L904.132 703.059L895.897 704.059C894.095 704.277 892.499 704.018 891.57 705.577Z" fill="#2F2E41"/>
<path d="M996.027 684.605L986.655 691.674L954.925 658.887L968.759 648.453L996.027 684.605Z" fill="#A0616A"/>
<path d="M963.757 708.615C963.836 709.327 964.878 711.029 965.31 711.601C966.635 713.357 969.133 713.707 970.89 712.382L999.915 690.487C1001.11 689.583 1001.35 687.878 1000.45 686.68L999.536 685.471C999.536 685.471 998.232 680.756 991.899 678.51C991.899 678.51 990.869 684.786 981.238 683.438L977.407 681.726L972.153 699.137L966.261 704.837C964.972 706.084 963.559 706.832 963.757 708.615Z" fill="#2F2E41"/>
<path d="M971.2 447.74C971.2 458.695 962.319 467.575 951.365 467.575C940.41 467.575 931.529 458.695 931.529 447.74C931.529 436.785 940.41 427.904 951.365 427.904C962.319 427.904 971.2 436.785 971.2 447.74Z" fill="#A0616A"/>
<path d="M969.331 562.107C969.331 562.107 896.299 557.973 892.166 566.241C888.032 574.508 914.514 688.074 914.514 688.074L938.14 683.122L926.614 603.445C926.614 603.445 987.558 619.586 995.826 600.294C1004.09 581.003 1001.71 573.819 1001.71 573.819L969.331 562.107Z" fill="#2F2E41"/>
<path d="M988.043 548.229C988.043 548.229 916.519 563.562 914.719 572.628C912.92 581.695 968.501 684.21 968.501 684.21L989.976 673.184L957.783 599.395C957.783 599.395 1020.83 598.838 1023.7 578.047C1026.57 557.256 1022.37 550.958 1022.37 550.958L988.043 548.229Z" fill="#2F2E41"/>
<path d="M996.202 470.472H961.839L938.327 509.055C938.327 509.055 932.815 533.989 938.327 536.68C943.839 539.37 943.839 568.308 943.839 568.308L1001.71 573.819C1001.71 573.819 1009.98 487.008 1007.23 478.74C1004.47 470.472 996.202 470.472 996.202 470.472Z" fill="#FFC107"/>
<path d="M941.772 495.965L938.327 536.679L899.58 520.235L890.332 515.584C888.521 513.222 886.17 511.328 883.477 510.061C876.78 506.797 869.669 507.606 867.593 511.866C865.516 516.127 869.26 522.226 875.956 525.488C878.614 526.829 881.555 527.513 884.532 527.484L911.59 542.852L911.622 542.792L911.742 543.006L954.174 560.729L963.937 507.28L941.772 495.965Z" fill="#A0616A"/>
<path d="M937.638 450.492C937.638 450.492 916.969 453.248 925.237 435.334C925.237 435.334 923.976 425.624 930.118 424.967C936.26 424.311 944.528 413.287 944.528 413.287C944.528 413.287 963.483 403.641 973.297 413.287C983.111 422.933 1012.05 479.429 1012.05 479.429L992.757 500.098C992.757 500.098 981.159 469.61 967.666 473.141C954.174 476.673 941.772 487.203 941.772 487.203C941.772 487.203 928.079 480.351 934.237 474.378C940.394 468.405 937.638 450.492 937.638 450.492Z" fill="#2F2E41"/>
<path d="M965.197 480.807C965.197 480.807 955.552 468.405 948.662 478.051C941.772 487.697 936.26 500.098 936.26 500.098L963.819 509.744L965.197 480.807Z" fill="#FFC107"/>
<path d="M1069.84 710.279L1037.82 608.509L1037.82 608.508H1037.9L1037.77 608.342L1037.76 608.339L1035.48 601.09L1035.48 601.089C1038.96 598.095 1041.32 593.817 1041.79 588.892L1027.16 508.393C1028.17 497.823 1020.06 488.583 1009.45 488.204L976.422 488.121C967.034 487.788 958.903 494.57 957.535 503.866L956.805 508.8L946.688 577.628C946.318 580.105 946.466 582.544 947.048 584.826L939.767 585.778L937.558 586.074L928.827 587.21L928.799 587.22L927.709 587.358H926.526V616.926H926.6V711.433C926.6 712.042 927.099 712.541 927.709 712.541C928.328 712.541 928.827 712.042 928.827 711.433V616.926H941.781L954.708 711.322C954.791 711.876 955.262 712.283 955.817 712.283C955.863 712.283 955.918 712.283 955.964 712.273C956.574 712.19 956.999 711.627 956.916 711.017L944.036 616.926H1006.19C1012.36 616.926 1018.08 614.968 1022.74 611.614L1047.38 711.149C1047.51 711.652 1047.97 711.987 1048.46 711.987C1048.55 711.987 1048.65 711.976 1048.74 711.953C1049.33 711.801 1049.69 711.195 1049.54 710.6L1024.66 610.103C1024.99 609.827 1025.32 609.533 1025.63 609.229L1035.53 608.647L1067.71 710.947C1067.86 711.422 1068.3 711.727 1068.77 711.727C1068.88 711.727 1069 711.71 1069.11 711.675C1069.69 711.49 1070.02 710.865 1069.84 710.279ZM1033.37 602.669C1033.45 602.623 1033.52 602.567 1033.6 602.521L1033.84 603.276L1033.37 602.669Z" fill="#E6E6E6"/>
<path d="M441.565 537.775L463.114 524.071L471.875 529.355L441.565 564.183V537.775Z" fill="#FFB6B6"/>
<path d="M412.097 484.733C412.097 484.733 397.784 488.1 404.52 507.465C411.255 526.83 433.146 567.243 439.881 564.717C446.617 562.191 447.459 536.933 447.459 536.933C447.459 536.933 446.617 537.775 443.249 534.407C439.881 531.039 439.881 532.577 439.881 528.861C439.881 525.146 437.127 522.391 437.127 522.391L433.988 515.884C433.988 515.884 433.988 485.574 421.359 483.891C408.73 482.207 412.097 484.733 412.097 484.733Z" fill="#E6E6E6"/>
<path d="M478.968 528.45C484.558 522.86 486.29 515.53 482.838 512.078C479.385 508.626 472.056 510.358 466.466 515.948C460.876 521.537 459.144 528.867 462.596 532.32C466.049 535.772 473.379 534.04 478.968 528.45Z" fill="#FFB6B6"/>
<path d="M356.348 596.29L371.052 620.628L456.741 615.557L433.925 586.149L356.348 596.29Z" fill="#E6E6E6"/>
<path d="M381.952 710.12C381.453 710.12 381.018 709.751 380.949 709.243L355.343 522.236C355.267 521.681 355.656 521.17 356.21 521.094C356.765 521.014 357.276 521.406 357.353 521.961L382.958 708.968C383.034 709.523 382.646 710.035 382.091 710.11C382.044 710.117 381.998 710.12 381.952 710.12Z" fill="#E6E6E6"/>
<path d="M356.348 710.358C355.788 710.358 355.334 709.903 355.334 709.343V522.135C355.334 521.575 355.788 521.121 356.348 521.121C356.908 521.121 357.362 521.575 357.362 522.135V709.343C357.362 709.903 356.908 710.358 356.348 710.358Z" fill="#E6E6E6"/>
<path d="M484.882 709.613C484.451 709.613 484.051 709.336 483.915 708.903L423.324 516.319C423.156 515.785 423.452 515.215 423.987 515.047C424.521 514.879 425.09 515.176 425.258 515.71L485.849 708.294C486.017 708.829 485.721 709.398 485.186 709.566C485.085 709.598 484.982 709.613 484.882 709.613Z" fill="#E6E6E6"/>
<path d="M466.374 709.85C465.922 709.85 465.509 709.546 465.392 709.087L423.308 539.117C423.17 538.574 423.498 538.022 424.041 537.884C424.585 537.747 425.136 538.074 425.274 538.617L467.358 708.586C467.496 709.129 467.168 709.681 466.625 709.819C466.541 709.841 466.457 709.85 466.374 709.85Z" fill="#E6E6E6"/>
<path d="M356.348 525.117L426.573 524.037L439.502 597.811H357.362L356.348 525.117Z" fill="#E6E6E6"/>
<path d="M464.266 633.597L446.568 664.755L467.117 669.279L475.684 647.118L464.266 633.597Z" fill="#FFB6B6"/>
<path d="M452.925 658.873C452.925 658.873 452.237 653.791 448.194 655.404C444.151 657.016 432.483 663.009 432.483 663.009C432.483 663.009 462.916 712.46 468.692 710.156C474.468 707.852 467.554 693.874 467.554 693.874L469.08 669.165L452.925 658.873Z" fill="#2F2E41"/>
<path d="M385.997 573.136C385.997 573.136 379.683 602.183 399.047 612.286C418.412 622.39 484.504 597.553 484.504 597.553L454.194 642.968L475.243 651.437C475.243 651.437 523.233 588.291 519.866 578.188C516.498 568.085 493.766 567.243 493.766 567.243L442.407 569.769L428.936 565.559L385.997 573.136Z" fill="#2F2E41"/>
<path d="M438.084 647.425L410.261 670.008L427.755 681.699L443.798 664.174L438.084 647.425Z" fill="#FFB6B6"/>
<path d="M418.322 666.842C418.322 666.842 419.531 661.858 415.178 661.889C410.826 661.92 397.777 663.256 397.777 663.256C397.777 663.256 408.13 720.391 414.348 720.347C420.565 720.303 419.212 704.767 419.212 704.767L429.624 682.307L418.322 666.842Z" fill="#2F2E41"/>
<path d="M387.181 562.629C387.181 562.629 370.73 587.387 385.09 603.844C399.451 620.301 470.05 621.217 470.05 621.217L425.292 652.489L441.816 668.037C441.816 668.037 509.494 626.683 510.034 616.047C510.573 605.411 489.706 596.355 489.706 596.355L440.949 580.019L429.934 571.196L387.181 562.629Z" fill="#2F2E41"/>
<path d="M429.443 505.284C429.443 505.284 413.446 499.391 405.869 499.391C405.145 499.391 404.429 499.475 403.714 499.627C398.864 500.654 394.402 504.821 392.263 507.095C391.43 507.987 390.95 508.585 390.95 508.585C390.95 508.585 391 508.004 391.101 506.985C391.598 501.63 393.434 484.059 396.726 472.811C397.904 468.795 399.26 465.587 400.817 464.029C404.446 460.392 406.122 456.031 406.896 452.781C407.553 449.994 407.553 448.032 407.553 448.032L401.415 445.389L400.278 437.963C400.076 438.838 399.142 440.548 396.001 443.823C395.732 444.101 395.437 444.336 395.126 444.538C390.596 447.384 381.36 442.434 376.384 439.318C378.455 432.12 382.21 425.536 389.03 424.458C405.027 421.932 405.027 412.671 415.13 422.774C415.964 423.608 416.806 424.408 417.648 425.182C420.881 431.362 422.059 439.647 422.48 445.406C422.784 449.438 422.708 452.242 422.708 452.242C422.708 452.242 426.917 477.5 433.653 482.552C440.389 487.604 429.443 505.284 429.443 505.284Z" fill="#2F2E41"/>
<path d="M398.291 464.871L386.915 481.558L412.604 488.446V464.871H398.291Z" fill="#FFB6B6"/>
<path opacity="0.1" d="M398.291 464.871L386.915 481.558L412.604 488.446V464.871H398.291Z" fill="black"/>
<path d="M414.202 480.944L389.786 470.841C389.786 470.841 356.95 485.153 359.476 512.938C362.002 540.722 385.576 588.712 385.576 588.712L432.725 568.506L427.673 514.621L414.202 480.944Z" fill="#E6E6E6"/>
<path d="M403.733 472.321C415.63 472.321 425.275 462.677 425.275 450.78C425.275 438.883 415.63 429.239 403.733 429.239C391.837 429.239 382.192 438.883 382.192 450.78C382.192 462.677 391.837 472.321 403.733 472.321Z" fill="#FFB6B6"/>
<path d="M432.811 442.981C428.601 447.191 425.234 451.4 425.234 451.4L423.55 444.665C423.55 444.665 423.162 444.951 422.48 445.406C419.811 447.224 412.647 451.796 406.896 452.781C404.337 453.219 402.063 452.941 400.582 451.4C397.441 448.125 396.507 446.416 396.305 445.54L395.168 452.966L389.03 455.61C389.03 455.61 389.03 464.854 395.766 471.607C396.094 471.935 396.414 472.339 396.725 472.811C399.942 477.66 402.249 489.532 403.714 499.626C405.01 508.602 405.633 516.162 405.633 516.162C405.633 516.162 399.26 508.181 392.263 507.095C391.876 507.036 391.489 506.993 391.101 506.985C390.975 506.968 390.84 506.968 390.714 506.968C383.137 506.968 367.14 512.862 367.14 512.862C367.14 512.862 356.194 495.181 362.93 490.129C369.666 485.078 373.875 459.82 373.875 459.82C373.875 459.82 373.597 449.009 376.384 439.318C378.455 432.12 382.21 425.536 389.03 424.458C405.027 421.932 405.027 412.671 415.13 422.774C415.964 423.608 416.806 424.408 417.648 425.182C427.061 433.837 436.676 439.116 432.811 442.981Z" fill="#2F2E41"/>
<path d="M338.334 556H330.334V714H338.334V556Z" fill="#3F3D56"/>
<path d="M532.334 556H524.334V714H532.334V556Z" fill="#3F3D56"/>
<path d="M481.334 489H428.334V542H481.334V489Z" fill="#FFC107"/>
<path d="M397.784 545.352L419.333 531.648L428.094 536.933L397.784 571.761V545.352Z" fill="#FFB6B6"/>
<path d="M368.316 492.31C368.316 492.31 354.003 495.678 360.739 515.042C367.475 534.407 389.365 574.82 396.1 572.294C402.836 569.768 403.678 544.51 403.678 544.51C403.678 544.51 402.836 545.352 399.468 541.984C396.1 538.617 396.1 540.155 396.1 536.439C396.1 532.723 393.346 529.969 393.346 529.969L390.207 523.462C390.207 523.462 390.207 493.152 377.578 491.468C364.949 489.784 368.316 492.31 368.316 492.31Z" fill="#E6E6E6"/>
<path d="M435.187 536.027C440.777 530.438 442.509 523.108 439.057 519.656C435.605 516.203 428.275 517.936 422.685 523.525C417.095 529.115 415.363 536.445 418.815 539.897C422.268 543.35 429.598 541.617 435.187 536.027Z" fill="#FFB6B6"/>
<path d="M548.334 550H306.334V568H548.334V550Z" fill="#3F3D56"/>
<path d="M794.204 406H758.464C755.631 406 753.334 408.297 753.334 411.13V425.87C753.334 428.703 755.631 431 758.464 431H794.204C797.037 431 799.334 428.703 799.334 425.87V411.13C799.334 408.297 797.037 406 794.204 406Z" fill="#3F3D56"/>
<path d="M869.204 420.74H833.464C830.631 420.74 828.334 423.037 828.334 425.87C828.334 428.703 830.631 431 833.464 431H869.204C872.037 431 874.334 428.703 874.334 425.87C874.334 423.037 872.037 420.74 869.204 420.74Z" fill="#FFC107"/>
<path d="M575 313.84L576.04 308.24C577.96 308.24 579.8 308.147 581.56 307.96C583.347 307.773 585.04 307.4 586.64 306.84C588.267 306.28 589.787 305.453 591.2 304.36C592.613 303.267 593.893 301.8 595.04 299.96L599.52 302C599.36 302.507 599.227 303 599.12 303.48C599.013 303.933 598.96 304.307 598.96 304.6C598.96 305.213 599.107 305.747 599.4 306.2C599.72 306.653 600.253 307 601 307.24C601.747 307.48 602.773 307.6 604.08 307.6C605.093 307.6 605.813 307.867 606.24 308.4C606.667 308.907 606.88 309.547 606.88 310.32C606.88 311.147 606.6 311.84 606.04 312.4C605.507 312.933 604.72 313.2 603.68 313.2C601.84 313.2 600.24 312.947 598.88 312.44C597.547 311.933 596.493 311.227 595.72 310.32C594.973 309.387 594.533 308.32 594.4 307.12L596 307.28C595.04 308.427 593.84 309.413 592.4 310.24C590.987 311.067 589.373 311.747 587.56 312.28C585.773 312.813 583.813 313.2 581.68 313.44C579.573 313.707 577.347 313.84 575 313.84ZM574.96 313.84C572.08 313.84 569.64 313.613 567.64 313.16C565.667 312.733 564.053 312.12 562.8 311.32C561.573 310.493 560.68 309.533 560.12 308.44C559.56 307.347 559.28 306.147 559.28 304.84C559.28 303.987 559.347 303.133 559.48 302.28C559.64 301.4 559.827 300.547 560.04 299.72C560.28 298.893 560.493 298.147 560.68 297.48L565.68 298.64C565.573 299.12 565.453 299.64 565.32 300.2C565.187 300.76 565.08 301.307 565 301.84C564.92 302.347 564.88 302.813 564.88 303.24C564.88 304.227 565.227 305.107 565.92 305.88C566.64 306.627 567.813 307.213 569.44 307.64C571.067 308.04 573.253 308.24 576 308.24L576.8 312.56L574.96 313.84ZM577.84 323.2C577.067 323.2 576.4 322.933 575.84 322.4C575.307 321.867 575.04 321.213 575.04 320.44C575.04 319.667 575.307 318.987 575.84 318.4C576.4 317.84 577.067 317.56 577.84 317.56C578.613 317.56 579.267 317.84 579.8 318.4C580.36 318.987 580.64 319.667 580.64 320.44C580.64 321.213 580.36 321.867 579.8 322.4C579.267 322.933 578.613 323.2 577.84 323.2ZM603.664 313.2L604.064 307.6C605.024 307.6 605.851 307.507 606.544 307.32C607.237 307.133 607.824 306.76 608.304 306.2C608.784 305.613 609.184 304.76 609.504 303.64C609.851 302.52 610.157 301.027 610.424 299.16L615.664 300.04C615.611 300.44 615.531 300.907 615.424 301.44C615.344 301.973 615.264 302.52 615.184 303.08C615.131 303.613 615.104 304.12 615.104 304.6C615.104 305.08 615.197 305.507 615.384 305.88C615.571 306.253 615.864 306.573 616.264 306.84C616.691 307.08 617.237 307.267 617.904 307.4C618.597 307.533 619.437 307.6 620.424 307.6C621.437 307.6 622.157 307.867 622.584 308.4C623.011 308.907 623.224 309.547 623.224 310.32C623.224 311.147 622.944 311.84 622.384 312.4C621.851 312.933 621.064 313.2 620.024 313.2C618.824 313.2 617.731 313.107 616.744 312.92C615.784 312.733 614.944 312.427 614.224 312C613.531 311.547 612.957 310.96 612.504 310.24C612.077 309.493 611.811 308.587 611.704 307.52H613.624C613.144 308.8 612.531 309.827 611.784 310.6C611.064 311.347 610.251 311.907 609.344 312.28C608.437 312.653 607.491 312.893 606.504 313C605.544 313.133 604.597 313.2 603.664 313.2ZM614.824 322.48C614.051 322.48 613.384 322.2 612.824 321.64C612.291 321.107 612.024 320.467 612.024 319.72C612.024 318.947 612.291 318.28 612.824 317.72C613.384 317.16 614.051 316.88 614.824 316.88C615.571 316.88 616.211 317.16 616.744 317.72C617.277 318.28 617.544 318.947 617.544 319.72C617.544 320.467 617.277 321.107 616.744 321.64C616.211 322.2 615.571 322.48 614.824 322.48ZM607.904 322.48C607.131 322.48 606.464 322.2 605.904 321.64C605.371 321.107 605.104 320.467 605.104 319.72C605.104 318.947 605.371 318.28 605.904 317.72C606.464 317.16 607.131 316.88 607.904 316.88C608.651 316.88 609.291 317.16 609.824 317.72C610.357 318.28 610.624 318.947 610.624 319.72C610.624 320.467 610.357 321.107 609.824 321.64C609.291 322.2 608.651 322.48 607.904 322.48ZM646.191 313.2C644.965 313.2 643.818 313.107 642.751 312.92C641.711 312.733 640.751 312.413 639.871 311.96C638.991 311.48 638.205 310.827 637.511 310C636.845 309.173 636.285 308.133 635.831 306.88L638.991 304.36C639.471 305.213 640.058 305.88 640.751 306.36C641.445 306.813 642.271 307.133 643.231 307.32C644.191 307.507 645.311 307.6 646.591 307.6C647.605 307.6 648.325 307.867 648.751 308.4C649.178 308.907 649.391 309.547 649.391 310.32C649.391 311.147 649.111 311.84 648.551 312.4C648.018 312.933 647.231 313.2 646.191 313.2ZM620.031 313.2L620.431 307.6C621.871 307.6 623.298 307.52 624.711 307.36C626.125 307.2 627.498 306.96 628.831 306.64C630.165 306.32 631.431 305.907 632.631 305.4C633.858 304.893 635.005 304.28 636.071 303.56C635.271 303.08 634.405 302.667 633.471 302.32C632.538 301.973 631.538 301.72 630.471 301.56C629.431 301.373 628.325 301.28 627.151 301.28C626.725 301.28 626.271 301.293 625.791 301.32C625.338 301.347 624.871 301.4 624.391 301.48C623.911 301.533 623.431 301.613 622.951 301.72L622.151 296.24C622.925 296.027 623.738 295.88 624.591 295.8C625.471 295.693 626.245 295.64 626.911 295.64C628.351 295.64 629.671 295.8 630.871 296.12C632.098 296.44 633.218 296.84 634.231 297.32C635.271 297.8 636.231 298.28 637.111 298.76C638.018 299.24 638.871 299.64 639.671 299.96C640.498 300.28 641.298 300.44 642.071 300.44H643.551L644.191 305.76C643.045 305.813 641.965 306.04 640.951 306.44C639.965 306.813 638.978 307.293 637.991 307.88C637.031 308.44 635.991 309.027 634.871 309.64C633.778 310.253 632.538 310.827 631.151 311.36C629.765 311.893 628.165 312.333 626.351 312.68C624.538 313.027 622.431 313.2 620.031 313.2ZM631.351 322.2C630.578 322.2 629.911 321.933 629.351 321.4C628.818 320.867 628.551 320.213 628.551 319.44C628.551 318.667 628.818 317.987 629.351 317.4C629.911 316.84 630.578 316.56 631.351 316.56C632.125 316.56 632.778 316.84 633.311 317.4C633.871 317.987 634.151 318.667 634.151 319.44C634.151 320.213 633.871 320.867 633.311 321.4C632.778 321.933 632.125 322.2 631.351 322.2ZM646.203 313.2L646.603 307.6C647.83 307.6 648.71 307.48 649.243 307.24C649.776 306.973 650.096 306.493 650.203 305.8C650.31 305.08 650.336 304.04 650.283 302.68L649.563 283.72H655.203L656.003 303.08C656.056 304.627 655.99 306.027 655.803 307.28C655.643 308.507 655.23 309.56 654.563 310.44C653.923 311.32 652.923 312 651.563 312.48C650.23 312.96 648.443 313.2 646.203 313.2ZM661.278 313L660.438 283.72H666.038L666.878 313H661.278ZM679.313 311.88C679.313 311.267 679.367 310.547 679.473 309.72C679.58 308.893 679.78 307.96 680.073 306.92C680.367 305.853 680.807 304.667 681.393 303.36L686.313 305.08C686.02 305.907 685.767 306.667 685.553 307.36C685.34 308.027 685.18 308.653 685.073 309.24C684.967 309.8 684.913 310.36 684.913 310.92C684.913 311.8 685.1 312.587 685.473 313.28C685.873 314 686.447 314.6 687.193 315.08C687.94 315.587 688.847 315.973 689.913 316.24C691.007 316.507 692.26 316.64 693.673 316.64C695.14 316.64 696.447 316.573 697.593 316.44C698.767 316.307 699.753 316.107 700.553 315.84C701.38 315.573 702.007 315.227 702.433 314.8C702.86 314.4 703.073 313.933 703.073 313.4C703.073 313.16 702.98 312.933 702.793 312.72C702.633 312.507 702.353 312.28 701.953 312.04C701.58 311.8 701.073 311.547 700.433 311.28C699.82 311.013 699.073 310.72 698.193 310.4L699.513 304.76C700.66 305.24 701.74 305.667 702.753 306.04C703.793 306.387 704.78 306.68 705.713 306.92C706.647 307.133 707.527 307.307 708.353 307.44C709.18 307.547 709.953 307.6 710.673 307.6C711.687 307.6 712.407 307.867 712.833 308.4C713.26 308.907 713.473 309.547 713.473 310.32C713.473 311.147 713.193 311.84 712.633 312.4C712.073 312.933 711.287 313.2 710.273 313.2C710.06 313.2 709.847 313.2 709.633 313.2C709.447 313.2 709.247 313.2 709.033 313.2C708.847 313.2 708.647 313.2 708.433 313.2C708.487 313.467 708.513 313.693 708.513 313.88C708.513 314.093 708.513 314.293 708.513 314.48C708.513 315.36 708.207 316.253 707.593 317.16C707.007 318.067 706.087 318.907 704.833 319.68C703.58 320.453 701.98 321.067 700.033 321.52C698.113 322 695.82 322.24 693.153 322.24C690.273 322.24 687.793 321.867 685.713 321.12C683.66 320.4 682.073 319.267 680.953 317.72C679.86 316.2 679.313 314.253 679.313 311.88ZM697.073 331.52C696.3 331.52 695.633 331.24 695.073 330.68C694.54 330.147 694.273 329.507 694.273 328.76C694.273 327.987 694.54 327.32 695.073 326.76C695.633 326.2 696.3 325.92 697.073 325.92C697.82 325.92 698.46 326.2 698.993 326.76C699.527 327.32 699.793 327.987 699.793 328.76C699.793 329.507 699.527 330.147 698.993 330.68C698.46 331.24 697.82 331.52 697.073 331.52ZM690.153 331.52C689.38 331.52 688.713 331.24 688.153 330.68C687.62 330.147 687.353 329.507 687.353 328.76C687.353 327.987 687.62 327.32 688.153 326.76C688.713 326.2 689.38 325.92 690.153 325.92C690.9 325.92 691.54 326.2 692.073 326.76C692.607 327.32 692.873 327.987 692.873 328.76C692.873 329.507 692.607 330.147 692.073 330.68C691.54 331.24 690.9 331.52 690.153 331.52ZM710.266 313.2L710.666 307.64C712.879 307.64 714.652 307.627 715.986 307.6C717.346 307.573 718.399 307.52 719.146 307.44C719.919 307.333 720.492 307.213 720.866 307.08C721.239 306.92 721.559 306.747 721.826 306.56C722.146 306.32 722.412 306 722.626 305.6C722.866 305.173 723.052 304.613 723.186 303.92C723.319 303.227 723.386 302.36 723.386 301.32C723.386 300.013 723.266 298.92 723.026 298.04C722.812 297.133 722.492 296.453 722.066 296C721.666 295.547 721.172 295.32 720.586 295.32C720.159 295.32 719.759 295.467 719.386 295.76C719.012 296.027 718.706 296.4 718.466 296.88C718.226 297.36 718.106 297.907 718.106 298.52C718.106 298.867 718.199 299.173 718.386 299.44C718.572 299.707 718.866 299.907 719.266 300.04C719.666 300.173 720.172 300.24 720.786 300.24C721.372 300.24 721.986 300.173 722.626 300.04C723.292 299.88 723.906 299.667 724.466 299.4L724.626 304.16C724.199 304.453 723.706 304.72 723.146 304.96C722.586 305.2 721.986 305.387 721.346 305.52C720.732 305.627 720.106 305.68 719.466 305.68C718.052 305.68 716.826 305.493 715.786 305.12C714.772 304.72 713.986 304.08 713.426 303.2C712.866 302.32 712.586 301.12 712.586 299.6C712.586 298.427 712.786 297.267 713.186 296.12C713.586 294.947 714.159 293.893 714.906 292.96C715.652 292 716.532 291.24 717.546 290.68C718.559 290.093 719.679 289.8 720.906 289.8C722.719 289.8 724.212 290.333 725.386 291.4C726.586 292.44 727.466 293.853 728.026 295.64C728.612 297.4 728.906 299.36 728.906 301.52C728.906 303.413 728.626 305.067 728.066 306.48C727.506 307.867 726.839 308.96 726.066 309.76C725.426 310.427 724.692 310.987 723.866 311.44C723.039 311.893 722.026 312.253 720.826 312.52C719.652 312.76 718.199 312.933 716.466 313.04C714.759 313.147 712.692 313.2 710.266 313.2ZM720.826 286.08C719.999 286.08 719.292 285.8 718.706 285.24C718.146 284.68 717.866 283.987 717.866 283.16C717.866 282.333 718.146 281.627 718.706 281.04C719.292 280.453 719.999 280.16 720.826 280.16C721.626 280.16 722.306 280.453 722.866 281.04C723.452 281.627 723.746 282.333 723.746 283.16C723.746 283.987 723.452 284.68 722.866 285.24C722.306 285.8 721.626 286.08 720.826 286.08ZM756.679 313.84L757.719 308.24C760.252 308.267 762.292 308.2 763.839 308.04C765.412 307.853 766.599 307.52 767.399 307.04C768.225 306.533 768.759 305.827 768.999 304.92C769.265 303.987 769.359 302.8 769.279 301.36L768.399 283.72H773.999L774.879 301.64C775.012 304.067 774.839 306.08 774.359 307.68C773.879 309.253 772.972 310.493 771.639 311.4C770.305 312.28 768.425 312.907 765.999 313.28C763.572 313.653 760.465 313.84 756.679 313.84ZM754.759 304.36L753.719 300.4C754.652 300.16 755.412 299.947 755.999 299.76C756.612 299.573 757.065 299.387 757.359 299.2C757.652 299.013 757.799 298.827 757.799 298.64C757.799 298.4 757.679 298.147 757.439 297.88C757.199 297.613 756.932 297.307 756.639 296.96C756.345 296.613 756.079 296.227 755.839 295.8C755.599 295.373 755.479 294.88 755.479 294.32C755.479 293.653 755.665 293.027 756.039 292.44C756.412 291.827 757.012 291.24 757.839 290.68C758.692 290.093 759.812 289.52 761.199 288.96L762.919 292.52C761.799 292.973 761.039 293.373 760.639 293.72C760.265 294.04 760.079 294.347 760.079 294.64C760.079 294.88 760.199 295.16 760.439 295.48C760.679 295.8 760.945 296.16 761.239 296.56C761.559 296.933 761.839 297.36 762.079 297.84C762.319 298.293 762.439 298.787 762.439 299.32C762.439 299.747 762.345 300.187 762.159 300.64C761.999 301.093 761.652 301.533 761.119 301.96C760.612 302.387 759.852 302.8 758.839 303.2C757.825 303.6 756.465 303.987 754.759 304.36ZM756.679 313.84C753.799 313.84 751.359 313.613 749.359 313.16C747.385 312.733 745.772 312.12 744.519 311.32C743.292 310.493 742.399 309.533 741.839 308.44C741.279 307.347 740.999 306.147 740.999 304.84C740.999 303.987 741.065 303.133 741.199 302.28C741.359 301.4 741.545 300.547 741.759 299.72C741.999 298.893 742.212 298.147 742.399 297.48L747.399 298.64C747.292 299.12 747.172 299.64 747.039 300.2C746.905 300.76 746.799 301.307 746.719 301.84C746.639 302.347 746.599 302.813 746.599 303.24C746.599 304.227 746.945 305.107 747.639 305.88C748.359 306.627 749.532 307.213 751.159 307.64C752.785 308.04 754.972 308.24 757.719 308.24L758.519 312.56L756.679 313.84ZM789.625 313.2C787.145 313.2 785.225 312.947 783.865 312.44C782.532 311.933 781.599 311.147 781.065 310.08C780.532 308.987 780.225 307.613 780.145 305.96L779.305 283.72H784.905L785.745 303.28C785.799 304.507 785.932 305.427 786.145 306.04C786.359 306.653 786.759 307.067 787.345 307.28C787.959 307.493 788.852 307.6 790.025 307.6C791.039 307.6 791.759 307.867 792.185 308.4C792.639 308.907 792.865 309.547 792.865 310.32C792.865 311.147 792.585 311.84 792.025 312.4C791.465 312.933 790.665 313.2 789.625 313.2ZM789.68 313.2L790.08 307.6C791.093 307.6 791.893 307.507 792.48 307.32C793.093 307.133 793.573 306.76 793.92 306.2C794.293 305.613 794.6 304.76 794.84 303.64C795.106 302.52 795.373 301.027 795.64 299.16L800.88 300.04C800.826 300.44 800.746 300.907 800.64 301.44C800.56 301.973 800.48 302.52 800.4 303.08C800.346 303.613 800.32 304.12 800.32 304.6C800.32 305.24 800.453 305.787 800.72 306.24C801.013 306.667 801.52 307 802.24 307.24C802.986 307.48 804.053 307.6 805.44 307.6C806.453 307.6 807.173 307.867 807.6 308.4C808.026 308.907 808.24 309.547 808.24 310.32C808.24 311.147 807.96 311.84 807.4 312.4C806.866 312.933 806.08 313.2 805.04 313.2C803.2 313.2 801.706 313.027 800.56 312.68C799.413 312.333 798.56 311.747 798 310.92C797.44 310.093 797.08 308.96 796.92 307.52H798.84C798.36 308.8 797.8 309.827 797.16 310.6C796.52 311.347 795.8 311.907 795 312.28C794.2 312.653 793.346 312.893 792.44 313C791.56 313.133 790.64 313.2 789.68 313.2ZM796.8 322.4C796.026 322.4 795.36 322.133 794.8 321.6C794.266 321.067 794 320.413 794 319.64C794 318.867 794.266 318.187 794.8 317.6C795.36 317.04 796.026 316.76 796.8 316.76C797.573 316.76 798.226 317.04 798.76 317.6C799.32 318.187 799.6 318.867 799.6 319.64C799.6 320.413 799.32 321.067 798.76 321.6C798.226 322.133 797.573 322.4 796.8 322.4ZM805.031 313.2L805.431 307.6C806.658 307.6 807.538 307.48 808.071 307.24C808.605 306.973 808.925 306.493 809.031 305.8C809.138 305.08 809.165 304.04 809.111 302.68L808.391 283.72H814.031L814.831 303.08C814.885 304.627 814.818 306.027 814.631 307.28C814.471 308.507 814.058 309.56 813.391 310.44C812.751 311.32 811.751 312 810.391 312.48C809.058 312.96 807.271 313.2 805.031 313.2ZM820.106 313L819.266 283.72H824.866L825.706 313H820.106Z" fill="black"/>
</g>
<defs>
<clipPath id="clip0_1_2">
<rect width="851.034" height="557.347" fill="white" transform="translate(270 163)"/>
</clipPath>
</defs>
</svg>
